<svg width="85" height="85" viewBox="0 0 85 85" fill="none" xmlns="http://www.w3.org/2000/svg">
<circle cx="42.5" cy="42.5" r="42.5" fill="#F6CB00"/>
<path d="M47.8827 13.3724L52.8247 7.47186L53.5286 7.66548L54.7573 15.2635L54.0052 15.0566L52.9132 7.94216L53.2024 8.02173L48.6251 13.5766L47.8827 13.3724ZM49.5935 11.9035L49.9648 11.3834L53.889 12.4629L53.942 13.0998L49.5935 11.9035ZM58.0105 17.0305C57.6034 16.8164 57.2857 16.5325 57.0573 16.179C56.8321 15.8195 56.7182 15.4131 56.7156 14.9597C56.7129 14.5064 56.8435 14.029 57.1073 13.5274C57.3741 13.02 57.6935 12.6419 58.0654 12.3931C58.4463 12.1414 58.8471 12.0095 59.2679 11.9973C59.6886 11.985 60.0996 12.0844 60.5008 12.2954C60.9433 12.5282 61.2859 12.8364 61.5285 13.2201C61.7801 13.601 61.9132 14.0212 61.9276 14.4807C61.942 14.9403 61.8251 15.406 61.5768 15.8781C61.3317 16.3442 61.0142 16.7045 60.6243 16.9589C60.2375 17.2074 59.8143 17.3389 59.3548 17.3533C58.9011 17.3708 58.453 17.2632 58.0105 17.0305ZM55.6353 15.7248L59.0891 9.15766L59.7174 9.48815L57.9859 12.7806L57.404 13.6722L56.9726 14.643L56.2371 16.0414L55.6353 15.7248ZM58.2595 16.4496C58.5899 16.6234 58.9237 16.7048 59.2609 16.6939C59.6012 16.677 59.9195 16.5732 60.2156 16.3824C60.5149 16.1858 60.7592 15.9075 60.9484 15.5476C61.1408 15.1818 61.2317 14.8228 61.221 14.4707C61.2104 14.1186 61.114 13.8005 60.932 13.5165C60.753 13.2265 60.4984 12.9947 60.1679 12.8209C59.8375 12.6471 59.4992 12.5671 59.153 12.5809C58.8158 12.5919 58.4991 12.6927 58.203 12.8834C57.9127 13.0773 57.6714 13.3571 57.479 13.7229C57.2897 14.0829 57.1959 14.4403 57.1976 14.7952C57.2082 15.1473 57.303 15.4683 57.482 15.7583C57.6699 16.0454 57.9291 16.2759 58.2595 16.4496ZM63.1071 20.4636C62.7193 20.1375 62.4427 19.7569 62.2772 19.3218C62.1212 18.8858 62.0825 18.4396 62.1613 17.9833C62.2443 17.5218 62.4532 17.0921 62.7878 16.694C63.1267 16.2909 63.5141 16.0113 63.9501 15.8552C64.3861 15.6992 64.8301 15.6631 65.2822 15.747C65.7342 15.8308 66.1567 16.0379 66.5496 16.3682C66.9477 16.7028 67.2269 17.0856 67.3872 17.5165C67.5527 17.9517 67.5935 18.3953 67.5096 18.8473C67.4308 19.3036 67.222 19.7334 66.8831 20.1365C66.5485 20.5346 66.1611 20.8142 65.7208 20.9754C65.2899 21.1357 64.8437 21.1743 64.3823 21.0913C63.9251 21.0031 63.5001 20.7939 63.1071 20.4636ZM63.5125 19.9813C63.8034 20.2258 64.1147 20.3787 64.4465 20.4398C64.7826 20.4959 65.1131 20.4602 65.438 20.3327C65.7723 20.2044 66.0703 19.9845 66.332 19.6733C66.5979 19.3569 66.7632 19.0255 66.8279 18.6792C66.8976 18.3372 66.8738 18.0081 66.7565 17.6918C66.6435 17.3703 66.4441 17.0895 66.1584 16.8493C65.8726 16.609 65.5616 16.4609 65.2256 16.4048C64.8938 16.3437 64.5629 16.3747 64.2329 16.4979C63.9029 16.6211 63.6049 16.8409 63.3389 17.1573C63.0772 17.4686 62.9119 17.8 62.843 18.1514C62.7784 18.4976 62.8026 18.8315 62.9156 19.1529C63.0329 19.4692 63.2318 19.7454 63.5125 19.9813ZM67.4452 24.9535C67.1693 24.6022 66.994 24.244 66.9192 23.8789C66.8444 23.5138 66.8804 23.1549 67.0273 22.8022C67.1783 22.4548 67.4504 22.1267 67.8437 21.8179L70.2425 19.9342L70.681 20.4926L68.3451 22.3269C67.9047 22.6727 67.6561 23.0417 67.5995 23.4337C67.5522 23.8268 67.6829 24.22 67.9917 24.6133C68.2182 24.9016 68.4714 25.1054 68.7515 25.2246C69.0409 25.3448 69.3416 25.3715 69.6535 25.3046C69.9695 25.2429 70.2848 25.0885 70.5994 24.8415L72.7623 23.1431L73.2008 23.7015L69.0717 26.9439L68.6517 26.4091L69.7843 25.5197L69.6477 25.7668C69.2407 25.8745 68.8415 25.8574 68.4503 25.7154C68.0684 25.5745 67.7334 25.3205 67.4452 24.9535ZM70.8409 30.0888C70.6152 29.6501 70.5599 29.2512 70.675 28.8921C70.7901 28.533 71.0641 28.2421 71.4968 28.0194L75.8806 25.7639L76.2054 26.3952L71.8572 28.6325C71.5845 28.7728 71.4092 28.9492 71.3311 29.1618C71.2561 29.3803 71.2857 29.62 71.4199 29.8809C71.5633 30.1595 71.7623 30.3495 72.0169 30.4509L71.6778 30.9065C71.5011 30.84 71.3403 30.7315 71.1954 30.5811C71.0536 30.4367 70.9355 30.2726 70.8409 30.0888ZM73.8944 25.7287L74.419 25.4587L75.906 28.3487L75.3813 28.6186L73.8944 25.7287ZM72.61 34.7384L77.8067 33.9917L77.9034 34.6648L76.4978 34.8668L76.7296 34.7223C77.1285 34.8267 77.4587 35.0385 77.7201 35.3579C77.989 35.683 78.1581 36.0864 78.2273 36.5681C78.3004 37.0762 78.2338 37.5269 78.0276 37.9202C77.8281 38.3126 77.4818 38.5981 76.9889 38.7767L77.0579 38.4839C77.5021 38.575 77.8803 38.7934 78.1927 39.1392C78.5125 39.4906 78.7114 39.9368 78.7891 40.4779C78.8498 40.9003 78.8199 41.2784 78.6995 41.6122C78.5867 41.9517 78.3776 42.231 78.0723 42.4499C77.7679 42.6755 77.365 42.8243 76.8635 42.8964L73.8445 43.3301L73.7435 42.6274L76.6932 42.2036C77.2409 42.1249 77.6344 41.9336 77.8736 41.6298C78.1204 41.3317 78.2097 40.9451 78.1414 40.47C78.0902 40.1136 77.9697 39.8144 77.78 39.5722C77.5979 39.3357 77.3545 39.1653 77.0499 39.0609C76.7528 38.9621 76.4063 38.9412 76.0104 38.9981L73.2785 39.3906L73.1775 38.6878L76.1272 38.264C76.6749 38.1853 77.0684 37.9941 77.3076 37.6903C77.5534 37.3856 77.6422 36.9957 77.5739 36.5205C77.5237 36.1708 77.4037 35.8748 77.214 35.6327C77.0309 35.3896 76.7871 35.2158 76.4824 35.1114C76.1854 35.0127 75.8389 34.9918 75.443 35.0486L72.711 35.4412L72.61 34.7384ZM73.4577 47.3747C73.5361 46.8337 73.7171 46.3749 74.0006 45.9983C74.2908 45.6227 74.6505 45.3481 75.0799 45.1745C75.5158 45.0019 75.991 44.9528 76.5057 45.0273C77.0203 45.1019 77.4598 45.2767 77.8241 45.5517C78.1875 45.8334 78.4536 46.1818 78.6225 46.597C78.7971 47.0197 78.8495 47.4719 78.7797 47.9535C78.709 48.4418 78.5343 48.8577 78.2555 49.2013C77.9823 49.5524 77.6287 49.8077 77.1947 49.9671C76.7673 50.1275 76.293 50.17 75.7718 50.0945C75.7388 50.0897 75.703 50.0811 75.6644 50.0688C75.6314 50.064 75.5951 50.0588 75.5555 50.053L76.2105 45.5302L76.7351 45.6062L76.1345 49.7529L75.9668 49.4457C76.3429 49.5002 76.688 49.466 77.0022 49.3431C77.322 49.2277 77.5845 49.0435 77.7896 48.7902C77.9946 48.537 78.1235 48.229 78.176 47.8661C78.2276 47.5098 78.1915 47.1779 78.0676 46.8703C77.9438 46.5627 77.7449 46.3082 77.4709 46.1069C77.1969 45.9055 76.8686 45.7771 76.4859 45.7217L76.3771 45.7059C75.9812 45.6486 75.6191 45.6837 75.2908 45.8113C74.9681 45.9464 74.6985 46.1566 74.482 46.4419C74.2712 46.7347 74.1367 47.0823 74.0784 47.4848C74.0325 47.8015 74.0461 48.1032 74.119 48.39C74.1911 48.6833 74.3282 48.9457 74.5305 49.1771L74.0179 49.507C73.7742 49.236 73.6051 48.9151 73.5106 48.5444C73.4152 48.1802 73.3975 47.7904 73.4577 47.3747ZM73.9041 54.377L78.5093 56.0567L78.199 56.8373L73.7009 54.8881L73.9041 54.377ZM71.8027 53.8431C71.8569 53.7068 71.9501 53.6075 72.0824 53.5453C72.2185 53.4918 72.3516 53.4909 72.4817 53.5426C72.618 53.5968 72.711 53.6876 72.7608 53.815C72.8143 53.951 72.814 54.0872 72.7599 54.2235C72.7032 54.366 72.6112 54.4621 72.4838 54.5119C72.3601 54.5704 72.2302 54.5725 72.0939 54.5184C71.9638 54.4667 71.8676 54.3746 71.8054 54.2423C71.747 54.1186 71.7461 53.9856 71.8027 53.8431ZM67.202 61.7143L69.721 68.9872L69.1929 69.4913L62.0447 66.6376L62.6089 66.099L69.2721 68.8212L69.0551 69.0283L66.6451 62.246L67.202 61.7143ZM67.5819 63.937L67.8371 64.5229L64.8931 67.3332L64.3197 67.0512L67.5819 63.937ZM58.8418 68.487C59.237 68.2516 59.645 68.1288 60.0658 68.1187C60.49 68.1143 60.8961 68.2294 61.2841 68.4638C61.6721 68.6983 62.0111 69.0589 62.3011 69.5457C62.5945 70.0383 62.7503 70.5081 62.7683 70.9552C62.784 71.4115 62.6872 71.8222 62.478 72.1874C62.2688 72.5526 61.9694 72.8512 61.58 73.0832C61.1504 73.3391 60.7087 73.4704 60.2548 73.4769C59.7985 73.4927 59.3707 73.3867 58.9712 73.1591C58.5718 72.9314 58.2356 72.5885 57.9626 72.1303C57.6931 71.6779 57.5516 71.2189 57.5382 70.7536C57.5282 70.2939 57.637 69.8644 57.8647 69.4649C58.0866 69.0689 58.4123 68.7429 58.8418 68.487ZM61.1956 67.143L64.9932 73.5175L64.3832 73.8809L62.4793 70.6851L62.0227 69.7232L61.4201 68.8484L60.6114 67.491L61.1956 67.143ZM59.2072 69.0027C58.8865 69.1937 58.6428 69.4359 58.4761 69.7292C58.3128 70.0283 58.2352 70.3539 58.2432 70.706C58.2547 71.0639 58.3644 71.4176 58.5726 71.7669C58.7841 72.122 59.0428 72.387 59.3487 72.5617C59.6545 72.7365 59.9761 72.8204 60.3134 72.8134C60.6542 72.8122 60.9849 72.7161 61.3056 72.525C61.6263 72.3339 61.8712 72.0872 62.0402 71.7847C62.2069 71.4914 62.2863 71.1686 62.2782 70.8165C62.2645 70.4677 62.1518 70.1158 61.9403 69.7607C61.7321 69.4113 61.4763 69.1447 61.1727 68.9608C60.8669 68.7861 60.5436 68.6993 60.2029 68.7005C59.8598 68.7109 59.528 68.8116 59.2072 69.0027ZM53.2611 71.0633C53.7404 70.8991 54.2092 70.8583 54.6674 70.9409C55.1214 71.032 55.5236 71.229 55.874 71.5318C56.2265 71.8409 56.4871 72.2414 56.6556 72.7333C56.8263 73.2315 56.8661 73.7077 56.775 74.1617C56.6839 74.6157 56.4859 75.0148 56.1809 75.3589C55.876 75.7029 55.4807 75.9582 54.9951 76.1245C54.5031 76.2931 54.0312 76.3349 53.5793 76.2501C53.1212 76.1675 52.72 75.9737 52.376 75.6688C52.0256 75.366 51.7651 74.9655 51.5944 74.4672C51.4258 73.9753 51.386 73.4992 51.475 73.0388C51.5598 72.587 51.7567 72.1848 52.0658 71.8322C52.3771 71.486 52.7755 71.2297 53.2611 71.0633ZM53.4653 71.6593C53.1058 71.7825 52.8143 71.9704 52.5908 72.2231C52.3695 72.4822 52.2297 72.7838 52.1714 73.1279C52.109 73.4805 52.1437 73.8492 52.2755 74.2339C52.4095 74.6249 52.6081 74.9374 52.8715 75.1713C53.1286 75.4074 53.4228 75.5568 53.7544 75.6194C54.088 75.6883 54.4315 75.6622 54.7847 75.5412C55.1378 75.4202 55.4251 75.2302 55.6464 74.9712C55.8699 74.7184 56.0139 74.4189 56.0785 74.0726C56.1431 73.7263 56.1084 73.3577 55.9745 72.9667C55.8427 72.5819 55.644 72.2695 55.3785 72.0292C55.1151 71.7953 54.8166 71.6439 54.4829 71.575C54.1514 71.5123 53.8122 71.5405 53.4653 71.6593ZM47.1809 72.4793C47.6238 72.422 48.0213 72.4546 48.3733 72.5771C48.7252 72.6996 49.0152 72.9142 49.2431 73.2208C49.4644 73.5283 49.6071 73.9299 49.6713 74.4258L50.0627 77.4506L49.3585 77.5417L48.9774 74.5963C48.9055 74.0409 48.7157 73.6386 48.4078 73.3894C48.0942 73.1476 47.6894 73.0588 47.1936 73.123C46.8299 73.17 46.5253 73.2834 46.2797 73.4631C46.0283 73.6502 45.8515 73.8949 45.7495 74.1972C45.6408 74.5003 45.6122 74.8502 45.6635 75.2469L46.0164 77.9742L45.3123 78.0653L44.6385 72.8587L45.3129 72.7714L45.4977 74.1995L45.3552 73.9558C45.4709 73.5509 45.6898 73.2167 46.012 72.9532C46.3284 72.6972 46.7181 72.5392 47.1809 72.4793ZM41.0282 72.8262C41.5211 72.8461 41.8954 72.9948 42.151 73.272C42.4067 73.5493 42.5246 73.931 42.5049 74.4173L42.3051 79.3433L41.5957 79.3145L41.7939 74.4285C41.8063 74.1221 41.7393 73.8825 41.5928 73.7098C41.4397 73.5367 41.2166 73.4443 40.9235 73.4324C40.6105 73.4197 40.347 73.4991 40.1332 73.6706L39.9041 73.1509C40.0491 73.03 40.2228 72.9436 40.425 72.8918C40.6206 72.8396 40.8217 72.8178 41.0282 72.8262ZM43.3153 77.6328L43.2914 78.2223L40.044 78.0906L40.0679 77.5011L43.3153 77.6328ZM36.1021 72.0919L34.2645 77.0098L33.6275 76.7717L34.1245 75.4416L34.14 75.7143C33.8572 76.0142 33.5129 76.2023 33.1072 76.2784C32.693 76.3585 32.258 76.3134 31.8021 76.143C31.3212 75.9634 30.9577 75.6888 30.7114 75.3192C30.4629 74.9559 30.3785 74.5151 30.4582 73.9969L30.682 74.198C30.3891 74.544 30.016 74.7711 29.5628 74.8793C29.101 74.9914 28.614 74.9518 28.1019 74.7605C27.7023 74.6111 27.3848 74.4036 27.1497 74.1378C26.9059 73.8759 26.7612 73.5585 26.7155 73.1856C26.6635 72.8103 26.7262 72.3854 26.9036 71.9108L27.9711 69.0537L28.6362 69.3022L27.5932 72.0937C27.3995 72.612 27.3786 73.049 27.5303 73.4046C27.6736 73.7642 27.97 74.0279 28.4196 74.196C28.7569 74.322 29.0772 74.3598 29.3807 74.3095C29.6756 74.2631 29.9419 74.1313 30.1796 73.9142C30.4087 73.7009 30.5933 73.4069 30.7333 73.0322L31.6994 70.4468L32.3645 70.6953L31.3214 73.4868C31.1277 74.0051 31.1068 74.4421 31.2586 74.7977C31.408 75.1596 31.7076 75.4245 32.1572 75.5925C32.4882 75.7162 32.8054 75.7529 33.1089 75.7026C33.41 75.6586 33.6795 75.5279 33.9172 75.3107C34.1463 75.0974 34.3309 74.8035 34.4709 74.4288L35.437 71.8433L36.1021 72.0919ZM24.5552 66.8304C24.9998 67.1485 25.3242 67.52 25.5284 67.9449C25.7287 68.3751 25.8074 68.8208 25.7644 69.2819C25.7175 69.7484 25.5427 70.1931 25.2401 70.616C24.9375 71.0389 24.5803 71.3489 24.1686 71.5462C23.7515 71.7396 23.3198 71.8159 22.8734 71.7752C22.4178 71.7361 21.9921 71.5749 21.5963 71.2917C21.1951 71.0046 20.906 70.6583 20.7288 70.2528C20.5424 69.8489 20.4781 69.4176 20.5358 68.9588C20.5897 68.5055 20.7699 68.0647 21.0764 67.6364C21.0958 67.6093 21.1198 67.5814 21.1485 67.5528C21.1679 67.5257 21.1893 67.4958 21.2125 67.4633L24.929 70.1228L24.6206 70.5538L21.2131 68.1155L21.563 68.1076C21.3419 68.4167 21.2138 68.7389 21.1786 69.0745C21.1341 69.4116 21.1772 69.7293 21.3079 70.0278C21.4387 70.3263 21.6531 70.5822 21.9513 70.7956C22.2441 71.0051 22.5555 71.1255 22.8856 71.1568C23.2157 71.1881 23.5331 71.1283 23.8378 70.9774C24.1425 70.8266 24.4074 70.5939 24.6324 70.2795L24.6964 70.19C24.9292 69.8647 25.0643 69.527 25.1019 69.1767C25.1301 68.828 25.0672 68.492 24.9132 68.1687C24.75 67.8469 24.503 67.5677 24.1723 67.331C23.9121 67.1448 23.6379 67.0183 23.3496 66.9514C23.056 66.8806 22.7599 66.8819 22.4615 66.9552L22.4039 66.3484C22.7566 66.2565 23.1193 66.2537 23.492 66.34C23.8592 66.4225 24.2137 66.5859 24.5552 66.8304ZM18.106 64.0728L14.5373 67.4333L13.9791 66.8056L17.7406 63.6617L18.106 64.0728ZM19.5267 62.4349C19.6242 62.5445 19.671 62.6724 19.6671 62.8185C19.6539 62.9641 19.5949 63.0835 19.4903 63.1765C19.3807 63.2739 19.2578 63.3163 19.1216 63.3036C18.976 63.2903 18.8544 63.2289 18.757 63.1193C18.6551 63.0047 18.6105 62.8793 18.6232 62.7431C18.6265 62.6064 18.683 62.4893 18.7926 62.3918C18.8972 62.2988 19.0226 62.2542 19.1688 62.2581C19.3055 62.2614 19.4248 62.3203 19.5267 62.4349ZM14.5108 54.82L6.88264 53.795L6.67025 53.0966L12.4364 47.9984L12.6634 48.7447L7.23294 53.469L7.14565 53.182L14.2868 54.0833L14.5108 54.82ZM12.3551 54.1585L11.7171 54.1226L10.533 50.2287L11.043 49.8436L12.3551 54.1585ZM12.2786 44.302C12.3045 44.7613 12.2245 45.1798 12.0388 45.5575C11.8464 45.9356 11.5565 46.2424 11.1691 46.4778C10.7817 46.7133 10.3052 46.847 9.73939 46.8788C9.16696 46.911 8.6784 46.8317 8.2737 46.6408C7.86197 46.4436 7.54264 46.1678 7.31569 45.8133C7.08875 45.4588 6.96254 45.0553 6.93707 44.6027C6.90898 44.1034 6.99704 43.6511 7.20124 43.2457C7.39842 42.8339 7.69032 42.5037 8.07696 42.2549C8.46359 42.0061 8.92315 41.8667 9.45564 41.8368C9.98148 41.8072 10.4538 41.8941 10.8725 42.0976C11.2846 42.3014 11.6151 42.5966 11.8639 42.9833C12.1123 43.3632 12.2505 43.8028 12.2786 44.302ZM12.381 47.0106L4.97269 47.4275L4.9328 46.7186L8.64692 46.5096L9.71087 46.5499L10.7653 46.4204L12.3428 46.3317L12.381 47.0106ZM11.6524 44.3874C11.6314 44.0146 11.5295 43.6865 11.3466 43.403C11.1571 43.1199 10.9044 42.9004 10.5884 42.7446C10.2659 42.5891 9.90156 42.5228 9.49553 42.5456C9.08285 42.5689 8.72829 42.6756 8.43185 42.8659C8.13541 43.0562 7.91222 43.3025 7.7623 43.6047C7.60573 43.9073 7.53793 44.245 7.5589 44.6177C7.57988 44.9905 7.68533 45.3217 7.87524 45.6115C8.05813 45.895 8.30753 46.1147 8.62345 46.2705C8.939 46.4197 9.30311 46.4827 9.71579 46.4595C10.1218 46.4366 10.4766 46.3332 10.78 46.1492C11.0765 45.9589 11.303 45.7124 11.4596 45.4098C11.6091 45.1009 11.6734 44.7601 11.6524 44.3874ZM12.628 38.1704C12.5435 38.67 12.3556 39.1013 12.0643 39.4645C11.7675 39.82 11.4025 40.0794 10.9691 40.2427C10.5293 40.405 10.053 40.4427 9.54024 40.356C9.02095 40.2682 8.58356 40.0759 8.22808 39.7791C7.8726 39.4823 7.61647 39.1178 7.45969 38.6856C7.30291 38.2534 7.26733 37.7842 7.35295 37.2781C7.43968 36.7654 7.62814 36.3307 7.91835 35.9741C8.20967 35.611 8.57143 35.351 9.00363 35.1942C9.43694 35.0309 9.91324 34.9931 10.4325 35.0809C10.9452 35.1677 11.3826 35.36 11.7447 35.6579C12.1013 35.9481 12.3607 36.3131 12.5229 36.753C12.6786 37.1918 12.7136 37.6642 12.628 38.1704ZM12.0068 38.0653C12.0702 37.6906 12.0442 37.3448 11.9288 37.0278C11.8068 36.7096 11.6085 36.4428 11.334 36.2273C11.0539 36.0042 10.7134 35.8587 10.3124 35.7909C9.9049 35.7219 9.53549 35.7473 9.20421 35.8671C8.87404 35.9803 8.60233 36.1676 8.38908 36.429C8.16925 36.6893 8.0282 37.0035 7.96593 37.3716C7.90367 37.7397 7.93352 38.0829 8.05551 38.401C8.17092 38.718 8.36535 38.9876 8.63881 39.2096C8.91228 39.4317 9.25278 39.5772 9.66032 39.6461C10.0613 39.7139 10.4307 39.6885 10.7686 39.5699C11.0998 39.4501 11.3754 39.2601 11.5952 38.9998C11.8085 38.7383 11.9457 38.4268 12.0068 38.0653ZM14.3493 32.1761C14.1793 32.5891 13.9538 32.918 13.6728 33.1628C13.3918 33.4076 13.0616 33.5529 12.6823 33.5986C12.3056 33.6382 11.886 33.5628 11.4237 33.3725L8.60328 32.2114L8.87355 31.5549L11.6199 32.6855C12.1378 32.8986 12.5813 32.9334 12.9504 32.7898C13.3159 32.6374 13.5938 32.3301 13.7842 31.8677C13.9237 31.5287 13.9765 31.2079 13.9424 30.9055C13.9046 30.5944 13.7798 30.3195 13.5681 30.0809C13.3588 29.8362 13.0692 29.6377 12.6993 29.4854L10.1564 28.4386L10.4267 27.7821L15.2814 29.7805L15.0226 30.4093L13.691 29.8612L13.9733 29.8584C14.2674 30.1598 14.4489 30.5156 14.5178 30.9261C14.5831 31.3279 14.527 31.7446 14.3493 32.1761ZM17.1428 26.6873C16.8732 27.1004 16.5538 27.3458 16.1847 27.4233C15.8157 27.5009 15.4274 27.4066 15.0198 27.1406L10.8915 24.4459L11.2795 23.8514L15.3744 26.5242C15.6312 26.6918 15.8713 26.757 16.0947 26.7197C16.3217 26.6768 16.5154 26.5326 16.6757 26.2869C16.847 26.0245 16.9137 25.7576 16.876 25.4862L17.4397 25.5556C17.4692 25.742 17.4545 25.9354 17.3954 26.1357C17.34 26.3304 17.2558 26.5143 17.1428 26.6873ZM11.8431 26.1896L11.3491 25.8671L13.1255 23.1456L13.6195 23.4681L11.8431 26.1896ZM20.2924 22.8341L17.0251 18.7247L17.5574 18.3015L18.4411 19.413L18.1994 19.2857C18.0882 18.8887 18.1044 18.4968 18.2482 18.1099C18.3931 17.7136 18.656 17.3641 19.0369 17.0612C19.4388 16.7417 19.8615 16.5717 20.3051 16.5512C20.7445 16.5255 21.1657 16.6803 21.5687 17.0157L21.281 17.1039C21.1355 16.6745 21.1332 16.2377 21.274 15.7935C21.416 15.34 21.7009 14.9432 22.1288 14.6029C22.4627 14.3374 22.8042 14.1724 23.1532 14.1078C23.5033 14.0339 23.8498 14.0735 24.193 14.2265C24.5413 14.3754 24.8731 14.6481 25.1885 15.0447L27.0866 17.4321L26.5309 17.874L24.6763 15.5414C24.3319 15.1083 23.9682 14.8651 23.5853 14.8119C23.2033 14.7493 22.8245 14.8674 22.4488 15.1661C22.167 15.3902 21.9695 15.6452 21.8562 15.9312C21.7439 16.2078 21.7196 16.5039 21.7832 16.8196C21.8479 17.1259 22.0047 17.4356 22.2536 17.7487L23.9713 19.909L23.4156 20.3509L21.561 18.0183C21.2166 17.5852 20.8529 17.342 20.4699 17.2888C20.0828 17.2304 19.7014 17.3506 19.3257 17.6493C19.0491 17.8692 18.8542 18.1221 18.7409 18.4081C18.6234 18.6889 18.5965 18.9871 18.6601 19.3027C18.7247 19.609 18.8816 19.9187 19.1305 20.2318L20.8482 22.3922L20.2924 22.8341ZM30.7562 15.6632C30.2536 15.8782 29.7677 15.9629 29.2985 15.9171C28.8267 15.8651 28.4049 15.7012 28.033 15.4252C27.6585 15.1431 27.369 14.7631 27.1644 14.285C26.9599 13.8069 26.8801 13.3407 26.925 12.8864C26.976 12.4295 27.1347 12.0208 27.401 11.6603C27.6709 11.2911 28.0295 11.0107 28.4769 10.8193C28.9305 10.6252 29.3765 10.5576 29.8151 10.6165C30.2571 10.6667 30.6592 10.8354 31.0215 11.1228C31.3811 11.404 31.6645 11.7867 31.8717 12.2709C31.8848 12.3015 31.8961 12.3366 31.9057 12.376C31.9189 12.4066 31.9333 12.4403 31.949 12.4771L27.7475 14.2748L27.539 13.7876L31.3912 12.1393L31.2163 12.4425C31.0669 12.0932 30.8578 11.8164 30.5892 11.6123C30.3241 11.3994 30.03 11.2714 29.707 11.2284C29.384 11.1853 29.054 11.2359 28.7169 11.3801C28.3859 11.5217 28.1214 11.7255 27.9234 11.9915C27.7254 12.2575 27.6119 12.5599 27.5828 12.8986C27.5537 13.2374 27.6152 13.5845 27.7673 13.94L27.8106 14.0411C27.968 14.4089 28.1866 14.6996 28.4666 14.9134C28.7501 15.1184 29.07 15.239 29.4263 15.2751C29.786 15.3024 30.1529 15.2361 30.5267 15.0761C30.8209 14.9502 31.0714 14.7814 31.2781 14.5697C31.491 14.3554 31.6434 14.1016 31.7355 13.8084L32.2842 14.074C32.1798 14.4232 31.9941 14.7347 31.7269 15.0086C31.4659 15.2798 31.1423 15.498 30.7562 15.6632ZM36.4336 11.5783L35.3449 6.79871L36.1689 6.63562L36.9731 11.4715L36.4336 11.5783ZM37.1257 13.633C36.9818 13.6615 36.8478 13.637 36.7238 13.5596C36.605 13.4744 36.532 13.3631 36.5048 13.2258C36.4763 13.0819 36.5021 12.9545 36.582 12.8435C36.6673 12.7247 36.7818 12.6511 36.9257 12.6226C37.0761 12.5928 37.2068 12.6179 37.3178 12.6979C37.434 12.7701 37.5063 12.8781 37.5348 13.0219C37.562 13.1593 37.5369 13.29 37.4595 13.414C37.3874 13.5302 37.2761 13.6032 37.1257 13.633Z" fill="#050505"/>
<rect x="35" y="35" width="16" height="3" fill="#050505"/>
<rect x="48" y="51" width="16" height="3" transform="rotate(-90 48 51)" fill="#050505"/>
<rect x="35" y="48.8137" width="17.6224" height="3" transform="rotate(-45 35 48.8137)" fill="#050505"/>
</svg>
